<?xml version="1.0" encoding="utf-8"?>
<!-- Generator: Adobe Illustrator 21.0.2, SVG Export Plug-In . SVG Version: 6.00 Build 0)  -->
<svg version="1.1" id="SMART_Logotype_Horizontal" xmlns="http://www.w3.org/2000/svg" xmlns:xlink="http://www.w3.org/1999/xlink"
	 x="0px" y="0px" viewBox="0 0 1207.1 578.5" style="enable-background:new 0 0 1207.1 578.5;" xml:space="preserve">
<style type="text/css">
	.st0{fill:#FFFFFF;}
	.st1{fill:#CA4786;}
	.st2{fill:#F3CE12;}
	.st3{fill:#EAB818;}
	.st4{fill:url(#SVGID_1_);}
	.st5{fill:url(#SVGID_2_);}
	.st6{fill:url(#SVGID_3_);}
	.st7{fill:none;}
</style>
<g>
	<g>
		<g>
			<g>
				<path class="st0" d="M728.3,308.5c0-8.8-3.4-13.7-8.6-17.1c-4.2-2.7-9.8-4.2-16.1-4.2c-14,0-25,8.6-25,19.6v82.9h-32.3v-81.2
					c0-8.8-3.4-13.7-8.6-17.1c-4.2-2.7-9.8-4.2-16.1-4.2c-14,0-25,8.6-25,19.6v82.9h-32.8V279.9c0-4.6,1.2-8.6,4.7-12
					c8.5-8,22.3-9.5,28.1-10.3v16.2c6.4-9.5,20.6-15.7,33.8-15.7c17.6,0,32.5,7.3,41.3,18.6c8.6-11.3,23.5-18.6,40.9-18.6
					c27.1,0,48.7,16.9,48.7,38.7v93h-33V308.5z"/>
				<path class="st0" d="M995,259.7c-20.2,0-36,10.2-45.5,28.3v-29.9c-3.6,0.9-18.9,5.5-27.1,14.1c-3.6,3.7-5.4,7.9-5.4,11.3v106.2
					h32.5v-50.1c0-29,15.1-46.9,41.6-49.2c3.6-0.2,7.5-1,7.5-6.7v-24H995z"/>
				<path class="st0" d="M1046.9,349v-60.3h28.5l16.3-29.1h-44.9v-48.5l-17.9,8.8c-10.2,5-15.7,13.6-15.7,22.1v113.4
					c0,15.7,6.3,37.1,36,37.1c17.3,0,29.1-6.4,29.1-10.3V360C1059.7,368.2,1046.9,365.6,1046.9,349"/>
				<path class="st0" d="M408.5,367.1l15.9-24.6c19.3,13.6,40.5,20.9,60.1,20.9c17.9,0,28.2-8.6,28.2-21.6
					c0-31.5-96.6-19.3-96.6-79.3c0-31.8,26.9-51.4,63.1-51.4c22.2,0,46.8,7.3,65.4,19.6l-10.3,17.9c-3,5.3-7.6,6-12.9,3.3
					c-13.9-7.6-29.5-11.9-42.8-11.9c-17.6,0-26.5,9-26.5,19.9c0,30.6,96.9,19.9,96.9,79c0,34.8-27.9,53.7-65.4,53.7
					C456.9,392.7,429.4,383.4,408.5,367.1z"/>
				<path class="st0" d="M892.5,314c0-17.7-3.2-32.1-12.4-41.5c-12.3-12.3-26.2-14.4-44-14.4c-18.2,0-35.2,7.4-38.4,9.7
					c-2.7,2-4.5,4.7-4.5,8.4v17.4c12.1-4.1,27.8-6.5,37.4-6.6c9.9,0,18.2,1.1,23.6,5.6c6.3,5.2,7,13.8,7.1,17.9
					c0,1.5-0.1,2.4-0.1,2.4l-0.1,0.5l-0.5-0.1c0,0-14.5-1.5-29.9-1.5c-15.2,0-28.6,2.8-37.8,10c-8,6.3-14.3,18.2-14.2,30.9
					c0,14.4,6.3,24.5,13.6,30.5c7.7,6.2,21.9,9.2,33.8,9.1c12.7,0,21.4-2.1,26.7-4.2c5.4-2.1,7.6-4.2,7.6-4.2l0.9-0.8l0,6.7l31.3,0
					L892.5,314z M861.3,346c0,7.1-2.9,16.5-13,20.9c-5,2.1-10.1,3.3-15.1,3.3c-5,0-9.9-1.2-13.9-3.7c-5.4-3.2-7.4-9.1-7.5-14.4
					c0-3.6,1-7.1,2.6-9.5c3.7-5.9,11-9.5,23.2-9.8h2.7c13.6-0.1,21.1,2.5,21.1,2.5V346z"/>
			</g>
		</g>
		<g>
			<polygon class="st0" points="120.9,114.8 120.9,261.4 229.6,324.1 114.8,390.4 241.8,463.7 362.7,393.9 362.7,254.3 			"/>
		</g>
		<polygon class="st1" points="127.4,390.3 241.8,456.3 241.8,324.2 		"/>
		<polygon class="st2" points="127.4,126 127.4,258.1 241.8,192 		"/>
		<polygon class="st3" points="241.8,192 241.8,192 127.4,258.1 241.8,324.2 		"/>
		<linearGradient id="SVGID_1_" gradientUnits="userSpaceOnUse" x1="241.7598" y1="324.1965" x2="356.1673" y2="324.1965">
			<stop  offset="0" style="stop-color:#2A2460"/>
			<stop  offset="0.1124" style="stop-color:#432464"/>
			<stop  offset="0.2" style="stop-color:#542367"/>
			<stop  offset="1" style="stop-color:#A03977"/>
		</linearGradient>
		<polygon class="st4" points="356.2,390.3 356.2,258.1 241.8,324.2 		"/>
		<linearGradient id="SVGID_2_" gradientUnits="userSpaceOnUse" x1="298.9635" y1="192.0369" x2="298.9635" y2="324.1665">
			<stop  offset="0.1" style="stop-color:#C8421B"/>
			<stop  offset="0.3056" style="stop-color:#CD591C"/>
			<stop  offset="0.769" style="stop-color:#D7821C"/>
			<stop  offset="1" style="stop-color:#DC911B"/>
		</linearGradient>
		<polygon class="st5" points="241.8,324.2 241.8,324.2 356.2,258.1 241.8,192 		"/>
		<linearGradient id="SVGID_3_" gradientUnits="userSpaceOnUse" x1="241.7598" y1="390.2369" x2="356.1673" y2="390.2369">
			<stop  offset="5.000000e-02" style="stop-color:#95263C"/>
			<stop  offset="6.721303e-02" style="stop-color:#97253D"/>
			<stop  offset="0.3436" style="stop-color:#AB1D45"/>
			<stop  offset="0.6" style="stop-color:#B9134B"/>
			<stop  offset="0.8267" style="stop-color:#C1004F"/>
			<stop  offset="1" style="stop-color:#C40050"/>
		</linearGradient>
		<polygon class="st6" points="356.2,390.3 356.2,390.3 241.8,324.2 241.8,456.3 		"/>
	</g>
	<g>
		<polygon class="st7" points="241.7,578.5 241.7,578.5 308,463.7 175.5,463.7 		"/>
		<polygon class="st7" points="0,400.2 0,400.2 114.8,466.5 114.8,334 		"/>
		<polygon class="st7" points="152.6,0 152.6,0 86.3,114.8 218.8,114.8 		"/>
		<polygon class="st7" points="1207.1,277.3 1207.1,277.3 1092.3,211 1092.3,343.5 		"/>
	</g>
</g>
</svg>
